<svg width="241" height="31" viewBox="0 0 241 31" fill="none" xmlns="http://www.w3.org/2000/svg">
<path d="M0 30.625V0H8.75V17.5H13.125V13.125H17.5V8.75H21.875V0H30.625V30.625H21.875V17.5H17.5V21.875H13.125V26.25H8.75V30.625H0ZM35 30.625V0H43.75V13.125H56.875V0H65.625V30.625H56.875V17.5H43.75V30.625H35ZM83.125 30.625V26.25H74.375V21.875H70V8.75H74.375V4.375H83.125V0H87.5V4.375H96.25V8.75H100.625V21.875H96.25V26.25H87.5V30.625H83.125ZM78.75 21.875H83.125V8.75H78.75V21.875ZM87.5 21.875H91.875V8.75H87.5V21.875ZM109.375 30.625V26.25H105V4.375H109.375V0H131.25V4.375H135.625V26.25H131.25V30.625H109.375ZM113.75 26.25H126.875V4.375H113.75V26.25ZM153.125 30.625V4.375H144.375V0H170.625V4.375H161.875V30.625H153.125ZM175 30.625V0H205.625V4.375H183.75V13.125H201.25V17.5H183.75V26.25H205.625V30.625H175ZM210 30.625V21.875H214.375V17.5H218.75V13.125H214.375V8.75H210V0H218.75V8.75H223.125V13.125H227.5V8.75H231.875V0H240.625V8.75H236.25V13.125H231.875V17.5H236.25V21.875H240.625V30.625H231.875V21.875H227.5V17.5H223.125V21.875H218.75V30.625H210Z" fill="white"/>
</svg>
